<?xml version="1.0" standalone="no"?>
<!DOCTYPE svg PUBLIC "-//W3C//DTD SVG 20010904//EN"
 "http://www.w3.org/TR/2001/REC-SVG-20010904/DTD/svg10.dtd">
<svg version="1.0" xmlns="http://www.w3.org/2000/svg"
 width="96.000000pt" height="96.000000pt" viewBox="0 0 96.000000 96.000000"
 preserveAspectRatio="xMidYMid meet">
<metadata>
Created by potrace 1.13, written by Peter Selinger 2001-2015
</metadata>
<g transform="translate(0.000000,96.000000) scale(0.100000,-0.100000)"
fill="#000000" stroke="none">
<path d="M628 743 c-9 -2 -15 -10 -12 -17 6 -15 -31 -59 -57 -68 -20 -8 -32
-58 -14 -58 14 0 40 -73 31 -88 -9 -15 31 -47 46 -35 17 14 86 4 90 -12 5 -21
48 1 48 25 0 25 29 60 52 60 27 0 34 40 11 59 -24 19 -36 60 -23 76 14 17 -25
51 -42 38 -17 -14 -78 -4 -85 13 -5 14 -14 15 -45 7z m96 -47 c80 -34 89 -125
17 -183 -38 -30 -105 -18 -142 27 -23 27 -25 36 -19 71 9 48 54 99 87 99 13 0
39 -6 57 -14z"/>
<path d="M280 655 c0 -14 -6 -25 -14 -25 -7 0 -30 -11 -51 -25 -29 -20 -40
-23 -51 -14 -8 7 -16 10 -17 8 -2 -2 -12 -21 -22 -42 -19 -36 -19 -39 -2 -51
23 -18 25 -121 2 -130 -14 -5 -13 -11 5 -47 19 -36 25 -40 47 -34 39 9 113
-24 113 -52 0 -21 5 -23 50 -23 48 0 50 1 50 28 0 21 9 32 42 50 28 15 45 19
52 12 19 -19 36 -10 56 31 12 23 20 42 18 44 -2 1 -13 8 -25 14 -19 10 -23 20
-23 61 0 40 4 50 20 55 25 8 25 15 -1 59 -24 41 -23 40 -47 25 -15 -10 -28 -7
-65 16 -30 17 -47 34 -47 46 0 16 -7 19 -45 19 -41 0 -45 -2 -45 -25z m149
-99 c32 -28 65 -106 51 -120 -5 -5 -10 -18 -10 -28 0 -27 -65 -93 -109 -110
-38 -15 -41 -15 -93 11 -45 22 -57 35 -81 82 l-29 56 26 55 c22 47 35 60 82
85 l56 30 42 -20 c22 -10 52 -29 65 -41z"/>
<path d="M252 560 c-39 -24 -55 -54 -57 -105 -3 -82 47 -132 130 -132 84 0
128 43 128 127 0 50 -22 93 -57 112 -35 19 -111 18 -144 -2z m140 -39 c27 -24
33 -36 33 -71 0 -35 -6 -47 -33 -71 -43 -39 -90 -39 -133 -1 -35 31 -43 82
-20 125 29 54 103 62 153 18z"/>
</g>
</svg>
